<svg width="771.818" height="151.653" viewBox="0 0 771.818 151.653" xmlns="http://www.w3.org/2000/svg"><g id="svgGroup" stroke-linecap="round" fill-rule="nonzero" font-size="9pt" stroke="#3C303E" stroke-width="0.01mm" fill="#f3b37d" style="stroke:#3C303E;stroke-width:0.01mm;fill:#f3b37d"><path d="M 193.557 101.628 A 0.591 0.591 0 0 0 193.006 101.326 A 1.911 1.911 0 0 0 192.418 101.44 Q 188.218 103.24 184.818 105.04 Q 181.418 106.84 178.618 108.44 Q 177.818 108.64 171.418 113.24 Q 166.218 116.64 164.418 116.64 Q 163.218 116.64 162.618 115.84 Q 161.818 114.24 161.818 109.84 Q 161.818 96.04 171.818 73.24 Q 178.218 70.24 182.218 70.24 Q 182.618 70.24 183.118 70.34 Q 183.618 70.44 184.018 70.44 Q 187.618 70.04 187.618 68.84 Q 187.618 67.44 183.218 67.44 L 179.218 67.44 L 176.918 67.44 Q 175.618 67.44 174.218 67.64 Q 176.018 63.64 178.518 59.24 Q 181.018 54.84 184.218 49.84 Q 195.418 32.44 204.818 20.74 Q 214.218 9.04 221.818 2.64 Q 223.218 1.44 223.218 0.64 Q 223.218 0.04 222.218 0.04 Q 220.218 0.04 218.218 2.04 Q 213.018 6.44 207.918 11.44 Q 202.818 16.44 198.218 22.44 L 179.818 46.64 Q 172.218 56.64 166.418 67.84 L 158.218 67.84 Q 156.818 68.04 155.718 68.04 L 153.618 68.04 L 150.018 68.04 Q 158.418 59.44 165.618 52.04 Q 172.818 44.64 179.018 38.44 Q 185.218 32.24 190.118 27.14 Q 195.018 22.04 198.818 18.24 Q 200.018 17.04 200.018 15.84 Q 200.018 15.04 199.418 15.04 Q 198.618 15.04 197.018 16.64 Q 193.218 20.64 186.918 26.54 Q 180.618 32.44 171.618 40.44 L 139.618 68.44 Q 137.618 68.44 137.218 68.64 Q 126.218 68.84 116.518 68.94 Q 106.818 69.04 98.218 69.04 A 0.138 0.138 0 0 1 98.041 68.961 A 6.355 6.355 0 0 1 100.218 67.44 Q 102.418 66.24 102.418 65.84 L 102.218 65.84 Q 95.218 65.84 84.218 69.04 Q 79.218 69.04 79.218 75.04 Q 79.218 78.64 82.418 78.64 Q 117.018 74.44 134.218 73.24 L 118.418 87.04 Q 89.218 112.44 66.818 126.44 Q 44.418 140.44 28.018 142.24 Q 8.618 144.24 8.618 124.04 Q 8.618 104.44 24.218 86.84 Q 53.418 53.84 73.818 53.84 Q 79.218 53.84 82.618 58.44 L 84.018 60.44 Q 84.418 60.84 84.618 61.14 Q 84.818 61.44 85.018 61.84 L 85.818 63.04 Q 87.818 63.04 87.818 58.24 Q 87.818 50.64 76.618 50.64 Q 74.818 50.64 72.818 50.94 Q 70.818 51.24 68.618 51.64 Q 41.618 58.24 20.218 84.44 Q 0.018 109.44 0.018 126.24 Q 0.018 145.44 23.018 145.44 Q 45.018 145.44 76.618 126.44 Q 88.418 119.44 99.918 110.84 Q 111.418 102.24 122.818 92.04 L 141.018 75.64 Q 147.218 74.04 153.018 72.94 Q 158.818 71.84 164.418 71.64 Q 150.218 100.44 150.218 117.44 Q 150.218 118.24 150.318 119.04 Q 150.418 119.84 150.418 120.84 Q 150.618 123.24 153.218 125.24 Q 155.818 127.24 158.418 127.24 Q 160.618 127.24 161.418 126.04 Q 166.418 119.64 177.018 112.04 Q 186.418 105.64 192.018 103.64 A 2.016 2.016 0 0 0 192.058 103.635" id="0"/><path d="M 192.058 103.635 A 72.733 72.733 0 0 0 189.518 107.24 Q 188.218 109.24 187.418 110.64 Q 185.618 113.24 185.618 115.64 Q 185.618 117.44 187.218 117.44 L 187.618 117.44 Q 189.218 117.44 193.618 113.64 Q 198.418 109.84 199.218 108.64 Q 202.418 103.84 218.418 91.04 Q 235.618 77.24 240.418 77.24 Q 241.818 77.24 241.818 78.84 Q 241.818 79.84 241.218 81.44 Q 239.018 86.44 237.318 90.54 Q 235.618 94.64 234.418 97.64 L 231.218 105.64 Q 231.018 106.44 230.718 107.34 Q 230.418 108.24 230.418 109.24 Q 230.418 111.24 232.018 111.24 Q 234.018 111.24 237.418 109.14 Q 240.818 107.04 241.618 105.64 Q 245.018 101.24 259.218 89.44 Q 274.418 76.64 278.018 76.64 Q 278.818 76.64 278.818 77.44 Q 278.818 78.24 277.618 80.44 L 254.618 120.24 A 0.779 0.779 0 0 0 254.561 120.532 A 3.158 3.158 0 0 0 256.618 122.54 Q 259.018 123.84 260.218 123.84 Q 260.818 123.84 261.018 123.64 Q 272.418 118.04 280.718 113.84 Q 289.018 109.64 294.618 106.44 Q 295.618 103.04 295.618 101.84 L 284.218 107.84 Q 280.818 109.64 277.518 111.24 Q 274.218 112.84 271.218 113.84 A 5.791 5.791 0 0 1 269.707 114.107 A 1.559 1.559 0 0 1 269.218 114.04 Q 268.018 113.64 268.018 112.44 Q 268.018 111.64 268.218 111.44 Q 274.818 101.44 279.918 93.74 Q 285.018 86.04 288.618 80.64 Q 292.218 75.44 294.318 72.24 Q 296.418 69.04 296.818 68.04 Q 296.218 63.84 292.218 63.84 Q 288.618 63.84 282.218 67.04 Q 275.818 70.24 266.818 77.24 L 246.218 93.44 L 251.818 76.04 Q 252.418 74.24 252.418 72.44 Q 252.418 66.44 248.018 66.44 Q 246.618 66.44 243.818 68.04 L 206.618 93.24 Q 207.418 91.84 212.418 85.64 Q 217.018 79.64 225.618 68.84 Q 227.818 67.24 228.618 65.44 A 4.063 4.063 0 0 0 228.974 64.058 A 0.52 0.52 0 0 0 228.418 63.44 Q 228.218 63.44 227.218 64.04 Q 215.018 67.84 213.818 70.44 Q 212.218 74.24 209.318 78.74 Q 206.418 83.24 202.418 88.84 A 349.961 349.961 0 0 1 193.557 101.628" id="1"/><path d="M 352.618 111.64 L 352.618 111.84 Q 352.618 113.04 351.418 114.74 Q 350.218 116.44 349.018 116.44 Q 346.618 116.44 346.618 108.44 Q 346.618 94.84 352.818 82.44 L 335.818 96.64 Q 326.218 104.64 318.518 109.74 Q 310.818 114.84 305.218 117.44 Q 302.418 118.84 299.618 118.84 Q 295.018 118.84 295.018 113.44 Q 295.018 109.64 297.818 103.64 Q 305.018 90.24 321.618 76.04 Q 341.818 59.24 354.418 59.24 Q 362.218 59.24 365.218 62.24 Q 369.818 58.84 375.018 58.84 Q 376.018 58.84 376.018 59.44 Q 376.018 59.84 375.618 60.24 Q 372.818 63.44 369.318 68.84 Q 365.818 74.24 361.818 82.24 Q 352.418 100.64 352.418 109.24 Q 352.418 111.24 352.618 111.64 Z M 308.618 109.64 Q 309.818 109.64 311.218 108.84 Q 313.818 107.84 320.218 103.64 Q 326.618 99.44 334.018 93.24 Q 343.218 85.64 349.318 79.34 Q 355.418 73.04 358.218 69.84 Q 357.018 66.44 353.418 66.44 Q 346.418 66.44 331.018 78.44 Q 313.618 92.44 308.218 101.44 Q 306.418 104.64 306.418 107.44 Q 306.418 109.64 308.618 109.64 Z" id="2"/><path d="M 383.818 81.84 L 391.018 74.44 A 10.117 10.117 0 0 1 400.018 70.64 Q 401.618 70.64 401.618 71.44 L 401.018 72.44 Q 398.418 75.24 395.518 78.64 Q 392.618 82.04 389.418 86.24 Q 380.818 97.24 380.818 101.04 Q 380.818 101.64 381.018 101.84 L 419.818 73.64 Q 424.618 70.04 430.218 70.04 Q 433.418 70.04 433.418 72.44 Q 433.418 75.04 429.218 80.24 Q 427.018 82.64 425.018 89.44 Q 423.018 95.64 423.018 101.44 A 4.86 4.86 0 0 0 426.572 107.808 A 5.157 5.157 0 0 0 427.818 107.64 Q 433.018 106.24 437.518 104.44 Q 442.018 102.64 445.618 100.04 Q 447.418 98.84 449.218 98.84 Q 450.218 98.84 450.218 99.64 Q 450.218 100.24 448.418 102.44 Q 445.818 105.64 435.218 109.84 Q 424.418 113.84 419.818 113.84 Q 412.018 113.84 412.018 105.64 Q 412.018 99.04 418.818 84.64 Q 419.618 83.24 419.618 81.84 Q 419.618 80.44 418.218 80.44 Q 416.218 80.44 413.618 82.44 Q 405.618 88.04 399.318 93.04 Q 393.018 98.04 388.618 102.24 L 374.418 116.04 Q 372.018 118.04 367.818 119.04 Q 367.218 119.24 366.618 119.24 L 365.618 119.24 Q 363.218 119.24 363.218 117.44 Q 363.218 115.64 365.618 112.44 Q 367.218 110.64 384.218 84.24 Q 384.618 83.64 384.218 83.04 Q 383.618 82.44 383.818 81.84 Z" id="3"/><path d="M 553.218 128.64 L 525.218 110.24 Q 514.618 120.24 503.018 120.24 Q 491.618 120.24 483.618 109.24 Q 476.018 99.24 476.018 89.44 Q 476.018 79.04 484.418 79.04 Q 492.618 79.04 526.018 101.64 Q 532.218 94.64 539.818 80.84 Q 560.218 44.44 575.818 26.24 Q 595.818 2.64 613.618 2.64 Q 623.818 2.64 631.418 13.24 Q 634.618 17.84 636.518 22.54 Q 638.418 27.24 638.418 32.24 L 638.418 33.04 Q 638.418 34.84 637.618 34.84 Q 636.018 34.84 635.618 30.84 Q 635.218 23.64 628.018 17.44 Q 620.418 11.04 611.618 11.04 Q 596.018 11.04 573.018 39.44 Q 564.418 49.84 556.718 61.54 Q 549.018 73.24 542.018 86.24 Q 535.618 98.04 530.418 104.44 L 557.618 122.44 Q 573.818 133.24 590.518 138.54 Q 607.218 143.84 624.018 143.84 Q 635.218 143.84 642.818 139.84 Q 651.418 135.04 651.418 126.24 Q 651.418 120.44 653.818 120.44 Q 654.418 120.44 654.418 122.24 Q 654.418 134.24 645.618 143.04 Q 637.018 151.64 624.018 151.64 Q 588.218 151.64 553.218 128.64 Z M 503.018 114.64 Q 512.218 114.64 520.418 107.24 Q 494.418 90.24 487.218 90.24 Q 481.818 90.24 481.818 96.64 Q 481.818 103.04 488.618 109.24 Q 495.018 114.64 503.018 114.64 Z" id="5"/><path d="M 625.818 111.64 L 625.818 111.84 Q 625.818 113.04 624.618 114.74 Q 623.418 116.44 622.218 116.44 Q 619.818 116.44 619.818 108.44 Q 619.818 94.84 626.018 82.44 L 609.018 96.64 Q 599.418 104.64 591.718 109.74 Q 584.018 114.84 578.418 117.44 Q 575.618 118.84 572.818 118.84 Q 568.218 118.84 568.218 113.44 Q 568.218 109.64 571.018 103.64 Q 578.218 90.24 594.818 76.04 Q 615.018 59.24 627.618 59.24 Q 635.418 59.24 638.418 62.24 Q 643.018 58.84 648.218 58.84 Q 649.218 58.84 649.218 59.44 Q 649.218 59.84 648.818 60.24 Q 646.018 63.44 642.518 68.84 Q 639.018 74.24 635.018 82.24 Q 625.618 100.64 625.618 109.24 Q 625.618 111.24 625.818 111.64 Z M 581.818 109.64 Q 583.018 109.64 584.418 108.84 Q 587.018 107.84 593.418 103.64 Q 599.818 99.44 607.218 93.24 Q 616.418 85.64 622.518 79.34 Q 628.618 73.04 631.418 69.84 Q 630.218 66.44 626.618 66.44 Q 619.618 66.44 604.218 78.44 Q 586.818 92.44 581.418 101.44 Q 579.618 104.64 579.618 107.44 Q 579.618 109.64 581.818 109.64 Z" id="6"/><path d="M 653.857 119.546 A 10.47 10.47 0 0 1 648.218 117.24 Q 643.618 113.84 643.018 108.44 Q 647.018 96.64 663.618 73.24 Q 680.218 49.84 709.218 14.64 Q 710.018 13.24 718.218 10.24 Q 725.818 7.04 728.618 7.04 Q 731.418 7.04 731.418 9.04 Q 731.418 10.84 728.218 10.84 Q 724.818 10.84 715.618 20.04 Q 704.418 30.84 680.418 62.44 Q 652.818 98.64 652.818 107.64 Q 652.818 109.64 653.818 111.84 Q 654.818 114.04 657.018 114.04 Q 658.218 114.04 661.718 112.64 Q 665.218 111.24 669.418 109.24 Q 673.618 107.24 677.418 105.14 Q 681.218 103.04 683.018 101.84 Q 683.018 105.84 682.018 106.44 Q 680.418 107.24 678.918 108.04 Q 677.418 108.84 675.818 109.84 Q 674.418 110.64 672.818 111.54 Q 671.218 112.44 669.618 113.44 Q 661.418 118.04 654.818 119.44 A 4.263 4.263 0 0 1 653.857 119.546 Z" id="7"/><path d="M 694.257 119.546 A 10.47 10.47 0 0 1 688.618 117.24 Q 684.018 113.84 683.418 108.44 Q 687.418 96.64 704.018 73.24 Q 720.618 49.84 749.618 14.64 Q 750.418 13.24 758.618 10.24 Q 766.218 7.04 769.018 7.04 Q 771.818 7.04 771.818 9.04 Q 771.818 10.84 768.618 10.84 Q 765.218 10.84 756.018 20.04 Q 744.818 30.84 720.818 62.44 Q 693.218 98.64 693.218 107.64 Q 693.218 109.64 694.218 111.84 Q 695.218 114.04 697.418 114.04 Q 698.618 114.04 702.118 112.64 Q 705.618 111.24 709.818 109.24 Q 714.018 107.24 717.818 105.14 Q 721.618 103.04 723.418 101.84 Q 723.418 105.84 722.418 106.44 Q 720.818 107.24 719.318 108.04 Q 717.818 108.84 716.218 109.84 Q 714.818 110.64 713.218 111.54 Q 711.618 112.44 710.018 113.44 Q 701.818 118.04 695.218 119.44 A 4.263 4.263 0 0 1 694.257 119.546 Z" id="8"/></g></svg>